<mxfile host="65bd71144e">
    <diagram id="9k5mUTDh6774sgz5qRag" name="Page-1">
        <mxGraphModel dx="659" dy="459" grid="1" gridSize="10" guides="1" tooltips="1" connect="1" arrows="1" fold="1" page="1" pageScale="1" pageWidth="850" pageHeight="1100" math="0" shadow="0">
            <root>
                <mxCell id="0"/>
                <mxCell id="1" parent="0"/>
                <mxCell id="14" value="" style="rounded=0;whiteSpace=wrap;html=1;strokeWidth=2;strokeColor=#0D7FD6;" parent="1" vertex="1">
                    <mxGeometry x="185" y="719" width="490" height="130" as="geometry"/>
                </mxCell>
                <mxCell id="15" value="&lt;font style=&quot;font-size: 14px&quot;&gt;&lt;b&gt;Main&lt;/b&gt;&lt;/font&gt;" style="text;html=1;align=center;verticalAlign=middle;resizable=0;points=[];autosize=1;strokeColor=none;" parent="1" vertex="1">
                    <mxGeometry x="629" y="699" width="50" height="20" as="geometry"/>
                </mxCell>
                <mxCell id="16" value="" style="rounded=0;whiteSpace=wrap;html=1;strokeWidth=2;strokeColor=#0D7FD6;" parent="1" vertex="1">
                    <mxGeometry x="185" y="560" width="490" height="130" as="geometry"/>
                </mxCell>
                <mxCell id="17" value="&lt;font style=&quot;font-size: 14px&quot;&gt;&lt;b&gt;Presentation&lt;/b&gt;&lt;/font&gt;" style="text;html=1;align=center;verticalAlign=middle;resizable=0;points=[];autosize=1;strokeColor=none;" parent="1" vertex="1">
                    <mxGeometry x="576" y="540" width="100" height="20" as="geometry"/>
                </mxCell>
                <mxCell id="20" value="" style="rounded=0;whiteSpace=wrap;html=1;strokeWidth=2;strokeColor=#0D7FD6;" parent="1" vertex="1">
                    <mxGeometry x="185" y="267.5" width="490" height="252.5" as="geometry"/>
                </mxCell>
                <mxCell id="21" value="&lt;font style=&quot;font-size: 14px&quot;&gt;&lt;b&gt;Domain&lt;/b&gt;&lt;/font&gt;" style="text;html=1;align=center;verticalAlign=middle;resizable=0;points=[];autosize=1;strokeColor=none;" parent="1" vertex="1">
                    <mxGeometry x="607" y="233" width="70" height="20" as="geometry"/>
                </mxCell>
                <mxCell id="41" style="edgeStyle=orthogonalEdgeStyle;rounded=0;orthogonalLoop=1;jettySize=auto;html=1;entryX=0.5;entryY=1;entryDx=0;entryDy=0;" edge="1" parent="1" source="23" target="25">
                    <mxGeometry relative="1" as="geometry"/>
                </mxCell>
                <mxCell id="43" style="edgeStyle=orthogonalEdgeStyle;rounded=0;orthogonalLoop=1;jettySize=auto;html=1;" edge="1" parent="1" source="23" target="32">
                    <mxGeometry relative="1" as="geometry"/>
                </mxCell>
                <mxCell id="51" style="edgeStyle=orthogonalEdgeStyle;rounded=0;orthogonalLoop=1;jettySize=auto;html=1;entryX=0.5;entryY=0;entryDx=0;entryDy=0;" edge="1" parent="1" source="23" target="49">
                    <mxGeometry relative="1" as="geometry"/>
                </mxCell>
                <mxCell id="23" value="SignInUseCase" style="rounded=1;whiteSpace=wrap;html=1;strokeColor=#0D7FD6;strokeWidth=2;fillColor=none;" parent="1" vertex="1">
                    <mxGeometry x="351.5" y="384" width="90" height="50" as="geometry"/>
                </mxCell>
                <mxCell id="25" value="Repository" style="rounded=1;whiteSpace=wrap;html=1;strokeColor=#0D7FD6;strokeWidth=2;fillColor=none;dashed=1;" parent="1" vertex="1">
                    <mxGeometry x="351.5" y="278" width="90" height="50" as="geometry"/>
                </mxCell>
                <mxCell id="27" value="&lt;h1&gt;&lt;b&gt;&lt;font style=&quot;font-size: 14px ; line-height: 120%&quot; face=&quot;Courier New&quot;&gt;I&lt;/font&gt;&lt;/b&gt;&lt;/h1&gt;" style="text;html=1;strokeColor=none;fillColor=none;align=center;verticalAlign=middle;whiteSpace=wrap;rounded=0;dashed=1;" parent="1" vertex="1">
                    <mxGeometry x="404.5" y="274" width="30" height="17" as="geometry"/>
                </mxCell>
                <mxCell id="32" value="User Entity" style="rounded=1;whiteSpace=wrap;html=1;strokeColor=#0D7FD6;strokeWidth=2;fillColor=none;dashed=1;" parent="1" vertex="1">
                    <mxGeometry x="201.5" y="384" width="90" height="50" as="geometry"/>
                </mxCell>
                <mxCell id="33" value="&lt;h1&gt;&lt;b&gt;&lt;font style=&quot;font-size: 14px ; line-height: 120%&quot; face=&quot;Courier New&quot;&gt;I&lt;/font&gt;&lt;/b&gt;&lt;/h1&gt;" style="text;html=1;strokeColor=none;fillColor=none;align=center;verticalAlign=middle;whiteSpace=wrap;rounded=0;dashed=1;" parent="1" vertex="1">
                    <mxGeometry x="193.5" y="380" width="30" height="17" as="geometry"/>
                </mxCell>
                <mxCell id="52" style="edgeStyle=orthogonalEdgeStyle;rounded=0;orthogonalLoop=1;jettySize=auto;html=1;entryX=0.426;entryY=1;entryDx=0;entryDy=0;entryPerimeter=0;" edge="1" parent="1" source="34" target="20">
                    <mxGeometry relative="1" as="geometry"/>
                </mxCell>
                <mxCell id="34" value="SignController" style="rounded=1;whiteSpace=wrap;html=1;strokeColor=#0D7FD6;strokeWidth=2;fillColor=none;" vertex="1" parent="1">
                    <mxGeometry x="348.5" y="600" width="90" height="50" as="geometry"/>
                </mxCell>
                <mxCell id="35" value="" style="rounded=0;whiteSpace=wrap;html=1;strokeWidth=2;strokeColor=#0D7FD6;" vertex="1" parent="1">
                    <mxGeometry x="189" y="68" width="490" height="130" as="geometry"/>
                </mxCell>
                <mxCell id="47" style="edgeStyle=orthogonalEdgeStyle;rounded=0;orthogonalLoop=1;jettySize=auto;html=1;entryX=0.416;entryY=0.011;entryDx=0;entryDy=0;entryPerimeter=0;" edge="1" parent="1" source="36" target="20">
                    <mxGeometry relative="1" as="geometry"/>
                </mxCell>
                <mxCell id="36" value="Repository&lt;br&gt;MongoDb" style="rounded=1;whiteSpace=wrap;html=1;strokeColor=#0D7FD6;strokeWidth=2;fillColor=none;" vertex="1" parent="1">
                    <mxGeometry x="253.5" y="120" width="90" height="50" as="geometry"/>
                </mxCell>
                <mxCell id="38" value="&lt;font style=&quot;font-size: 14px&quot;&gt;&lt;b&gt;Infra&lt;/b&gt;&lt;/font&gt;" style="text;html=1;align=center;verticalAlign=middle;resizable=0;points=[];autosize=1;strokeColor=none;" vertex="1" parent="1">
                    <mxGeometry x="616" y="40" width="50" height="20" as="geometry"/>
                </mxCell>
                <mxCell id="49" value="SignIn" style="rounded=1;whiteSpace=wrap;html=1;strokeColor=#0D7FD6;strokeWidth=2;fillColor=none;dashed=1;" vertex="1" parent="1">
                    <mxGeometry x="351.5" y="460" width="90" height="50" as="geometry"/>
                </mxCell>
                <mxCell id="50" value="&lt;h1&gt;&lt;b&gt;&lt;font style=&quot;font-size: 14px ; line-height: 120%&quot; face=&quot;Courier New&quot;&gt;I&lt;/font&gt;&lt;/b&gt;&lt;/h1&gt;" style="text;html=1;strokeColor=none;fillColor=none;align=center;verticalAlign=middle;whiteSpace=wrap;rounded=0;dashed=1;" vertex="1" parent="1">
                    <mxGeometry x="348.5" y="440" width="30" height="50" as="geometry"/>
                </mxCell>
                <mxCell id="55" style="edgeStyle=orthogonalEdgeStyle;rounded=0;orthogonalLoop=1;jettySize=auto;html=1;exitX=0.5;exitY=0;exitDx=0;exitDy=0;entryX=0.5;entryY=1;entryDx=0;entryDy=0;" edge="1" parent="1" source="53" target="34">
                    <mxGeometry relative="1" as="geometry"/>
                </mxCell>
                <mxCell id="53" value="SignFactory" style="rounded=1;whiteSpace=wrap;html=1;strokeColor=#0D7FD6;strokeWidth=2;fillColor=none;" vertex="1" parent="1">
                    <mxGeometry x="348.5" y="750" width="90" height="50" as="geometry"/>
                </mxCell>
            </root>
        </mxGraphModel>
    </diagram>
</mxfile>